<?xml version="1.0" encoding="utf-8"?>
<!-- Generator: Adobe Illustrator 23.0.5, SVG Export Plug-In . SVG Version: 6.00 Build 0)  -->
<svg version="1.1" id="Capa_1" xmlns="http://www.w3.org/2000/svg" xmlns:xlink="http://www.w3.org/1999/xlink" x="0px" y="0px"
	 viewBox="0 0 1550.53 520.47" style="enable-background:new 0 0 1550.53 520.47;" xml:space="preserve">
<style type="text/css">
	.st0{fill:#FFFFFF;}
	.st1{fill:none;}
	.st2{font-family:'OpenSans-Semibold';}
	.st3{font-size:113.982px;}
	.st4{letter-spacing:-1;}
	.st5{font-family:'OpenSans-Bold';}
	.st6{font-size:79.2463px;}
</style>
<g id="XMLID_85_">
	<g>
		<path id="XMLID_220_" class="st0" d="M73.35,254.8c-5.13,10.45-11.4,21.84-10.06,34.16c0,5.36,6.04,10.47,3.36,16.05
			c-0.46,0-0.91,0-1.36-0.46c-0.72-0.59-1.48-0.84-2.25-0.84c-1.61,0-3.25,1.05-4.47,1.99c-1.78,2.33-0.44,5.35,0.69,7.69
			c0.64,0.27,1.25,0.36,1.87,0.36c2.11,0,4.04-1.32,5.95-2.23c3.13,6.75,3.13,15.13,7.15,21.4l-1.11,1.38
			c-6.94-8.82-15.22-17.19-25.07-21.39c2.91,12.57,11.86,25.35,21.03,32.1c1.66,0,4.13,1.36,5.95,1.36c1.36,0,2.34-0.76,2.34-3.47
			c3.81,4.89,6.94,10.01,9.85,15.13c-0.22,0.68-0.54,0.89-0.89,0.89c-0.28,0-0.57-0.13-0.88-0.28c-0.3-0.14-0.58-0.28-0.82-0.28
			c-0.12,0-0.23,0.03-0.32,0.13c-2.91,0.46-4.47,3.73-4.93,6.28c1.05,2.42,2.7,4.22,5.33,4.22c0.15,0,0.31-0.01,0.49-0.03
			c2.91-0.7,5.39-3.25,5.16-6.74l17,16.03c20.36,17.44,44.75,22.56,70.03,23.26l0.47,0.93c-3.36,2.1-7.4,3.94-9.41,7.43
			c-0.91,3.96-3.35,7.68-3.58,11.41c5.39-0.49,11.41-2.8,15.21-7.92c2.02-3.25,4.7-7.92,2.46-11.4c2.37-0.13,4.94-0.46,7.42-0.46
			c1.97,0,3.88,0.21,5.56,0.94l-0.44,0.46c-2.69,2.33-0.23,5.34,0.44,7.92c3.35,6.5,9.41,9.98,16.56,10.46
			c-1.34-8.14-4.7-16.52-12.53-19.32c5.59-1.16,13.43-1.16,18.79-1.62c26.42-0.45,49.46-15.81,69.82-35.58
			c0.67,0.94,0.21,2.35,0.45,3.26c1.33,2.1,3.8,3.49,6.26,3.49c2.02-0.69,4.02-3.26,3.81-5.81c-0.84-2.86-4.28-4.67-6.93-4.67
			c-0.15,0-0.32,0.01-0.46,0.01c3.36-5.81,6.27-10.47,10.51-16.04c0.9,1.17,0,2.79,0.9,3.95c15.22,0,23.5-19.31,28.88-31.85
			c-9.18,2.55-15.89,9.06-22.84,16.27c-1.13,0.99-1.3,4.01-2.86,4.01c-0.27,0-0.58-0.1-0.95-0.3c2.47-6.49,4.91-13.24,6.05-20.45
			c0.54-1.02,1.25-1.36,2.05-1.36c0.86,0,1.82,0.38,2.82,0.78c0.98,0.39,1.97,0.78,2.89,0.78c0.86,0,1.66-0.34,2.32-1.36
			c1.34-2.57,1.57-6.99-2.02-8.13c-0.49-0.36-0.98-0.5-1.45-0.5c-0.7,0-1.36,0.29-2.02,0.56c-0.67,0.28-1.31,0.57-1.96,0.57
			c-0.28,0-0.56-0.05-0.83-0.18l0.22-5.34c9.15-14.42,0.89-31.39-5.15-44.42l-1.12-0.47c-2.49,9.08-2.93,19.07-0.91,28.6
			c0.91,6.98,6.5,12.57,5.15,20.01c-0.35,0.53-0.69,0.72-1.02,0.72c-1,0-2-1.71-3.01-1.89c-0.55-0.29-1.25-0.45-1.98-0.45
			c-1.01,0-2.06,0.34-2.72,1.15c-1.81,3.04-0.22,6.75,1.56,8.85c0.44,0.13,0.86,0.18,1.26,0.18c1.68,0,3.16-0.94,4.77-1.12
			l-1.55,9.76c-3.13,6.52-4.48,15.13-9.41,19.53c1.14-2.78,1.56-6.27,0.91-9.52c-3.14-10.23-6.03-22.09-14.54-28.38
			c-0.45,0.94,0,2.35-0.66,3.25c0.21,14.42-0.67,31.64,12.07,39.76c-3.78,4.21-4.02,8.85-8.94,11.63c-0.68-2.56-2.01-5.12-4.48-6.51
			c-0.78-0.54-1.48-0.78-2.09-0.78c-2.54,0-3.67,4.05-3.49,7.06c0.67,2.55,3.11,4.65,5.58,4.88c-2.68,3.94-4.91,7.21-8.74,9.99
			c-18.97,15.36-40.61,23.87-64.62,23.87c-2.88,0-5.81-0.12-8.76-0.37l-1.56-0.7c5.38-4.88,10.74-12.56,10.74-20.23h-3.15
			c-9.16,1.38-13.42,12.54-15.66,20.47c-0.55,0.41-1.09,0.56-1.61,0.56c-1.54,0-2.92-1.4-4.42-1.74c-1.35-5.8-3.36-11.38-7.6-15.81
			c-2.84-0.99-5.36-3.78-8.37-3.78c-0.54,0-1.11,0.09-1.71,0.3c0,8.13,4.27,13.94,10.08,18.83v2.1H168
			c-0.81,0.02-1.64,0.05-2.45,0.05c-26.89,0-52.9-14.64-70.27-35.63c0.84-0.18,0.91-1.01,1.49-1.01c0.18,0,0.42,0.09,0.75,0.31
			c2.46-1.39,3.8-3.95,3.8-6.74c-0.41-1.9-0.99-4.76-3.26-4.76c-0.23,0-0.49,0.03-0.76,0.1c-3.79,0.7-5.38,4.89-6.93,7.45
			c-3.58-3.73-6.27-8.61-7.62-12.79c12.54-8.61,12.76-26.51,12.09-41.86h-1.33c-9.18,9.77-14.33,23.95-14.11,37.68
			c-4.69-9.07-8.27-18.61-9.62-29.08l0.89-0.7c0.13-0.04,0.24-0.06,0.35-0.06c0.48,0,0.86,0.38,1.23,0.76
			c0.5,0.08,1.12,0.14,1.78,0.14c1.41,0,2.91-0.34,3.37-1.77c1.56-2.33,1.79-5.82-0.69-7.92c-1.99,0.23-4.69-0.23-6.93,1.63
			c-3.12-6.76,3.82-13.25,4.93-20.46C76.7,274.09,78.07,262.24,73.35,254.8"/>
		<path id="XMLID_219_" class="st0" d="M108.93,340.84c0.45,11.85,1.34,21.39,6.05,31.85c2.69,3.19,4.89,8.11,9.27,8.11
			c0.72,0,1.5-0.14,2.36-0.43C132.43,364.32,119.67,350.83,108.93,340.84"/>
		<path id="XMLID_218_" class="st0" d="M269.6,342.92c-10.3,9.77-21.93,20.46-19.23,36.05c0.7,1.47,1.68,3.51,3.27,3.51
			c0.42,0,0.91-0.14,1.42-0.49C268.92,374.56,268.49,356.19,269.6,342.92"/>
		<path id="XMLID_217_" class="st0" d="M133.54,363.16l-0.43,0.46c5.58,14.89,18.79,32.09,35.79,32.55
			C166,378.04,149.87,366.18,133.54,363.16"/>
		<path id="XMLID_216_" class="st0" d="M244.99,364.32c-5.82,0.46-9.17,3.94-14.77,5.12c-10.5,5.58-19.47,14.88-21.47,26.74h1.57
			C226.19,394.78,240.73,379.67,244.99,364.32"/>
		<path id="XMLID_215_" class="st0" d="M73.14,377.8c8.06,9.97,19.23,16.35,32,16.35c2.13,0,4.29-0.18,6.49-0.54
			c1.12-1.39,4.03-3.24,2.9-5.35C104.46,375.72,86.79,378.73,73.14,377.8"/>
		<path id="XMLID_214_" class="st0" d="M132.45,379.7c-0.47,0-0.93,0.06-1.36,0.2c-1.58,1.39-2.69,4.18-1.58,5.35
			c0.69,2.33,2.92,2.78,4.7,3.47c2.47-0.92,2.47-3.47,2.92-5.56C136.59,380.9,134.44,379.7,132.45,379.7"/>
		<path id="XMLID_213_" class="st0" d="M304.95,380.6c-1.91,0.05-3.79,0.07-5.65,0.07c-0.97,0-1.96,0-2.92-0.01
			c-0.96,0-1.91-0.01-2.86-0.01c-10.68,0-20.42,0.54-29.05,7.62c-1.36,1.87-1.57,5.35,0.66,6.75c2.99,0.9,5.97,1.31,8.9,1.31
			C285.55,396.33,296.39,389.86,304.95,380.6"/>
		<path id="XMLID_212_" class="st0" d="M245.33,380.68c-0.51,0-1.01,0.13-1.46,0.4c-1.57,1.15-3.81,2.55-2.91,5.56
			c1.12,0.79,1.47,3.06,3.01,3.06c0.29,0,0.63-0.09,1.01-0.27c2.02-0.7,4.25-2.79,3.58-5.33
			C248.74,382.1,247.04,380.68,245.33,380.68"/>
		<path id="XMLID_211_" class="st0" d="M122.43,392.36c-0.24,0-0.49,0.03-0.73,0.1c-2.24,0.7-4.47,3.72-3.58,6.28
			c1.61,1.47,2.68,3.32,4.85,3.32c0.24,0,0.48-0.01,0.74-0.07c2.02-0.93,4.26-2.78,3.81-5.36
			C126.11,395.17,124.67,392.36,122.43,392.36"/>
		<path id="XMLID_210_" class="st0" d="M254.61,394.08c-2.69,0.7-4.27,3.03-4.27,5.83c0.68,2.78,2.91,3.01,5.6,3.48
			c1.79-0.7,3.81-2.8,3.59-5.11C259.31,396.17,256.84,394.08,254.61,394.08"/>
		<path id="XMLID_209_" class="st0" d="M152.32,401.49c-0.68,0-1.34,0.01-1.99,0.03c-9.84,2.56-19.68,8.14-26.86,14.41
			c4.2,0.34,9.09,1.15,14.01,1.15c1.91,0,3.81-0.13,5.69-0.45c8.97-0.93,19.48-3.26,22.84-12.56
			C162.26,402.24,157.14,401.49,152.32,401.49"/>
		<path id="XMLID_208_" class="st0" d="M221.36,401.6c-2.92,0-6,0.6-9.27,2.02l-0.9,1.4c6.51,11.1,18.89,12.89,30.31,12.89
			c3.89,0,7.69-0.21,11.09-0.33l1.34-1.39C242.98,411.51,233.32,401.6,221.36,401.6"/>
		<path id="XMLID_205_" class="st0" d="M193.52,48.76c-3.59,4.17-7.84,9.75-9.62,15.57c0,4.66-5.38,1.64-6.94,4.89
			c-1.56,2.09-1.79,5.58-0.44,7.67c5.15,2.1,6.03,6.04,6.93,11.15c-2.01,4.19-9.4,2.34-13.42,3.73c-0.88-0.47-0.66-1.39-0.66-2.33
			c-0.45-2.8-3.35-4.88-5.59-5.12c-0.61,0.12-1.16,0.17-1.68,0.17c-8.07,0-7.57-12.76-15.78-13.19c-3.35,4.19-5.58,10.23-5.14,16.03
			c-2.24,1.86-5.6,0.7-7.39,4.19c-1.56,2.09-0.66,5.12,0.9,6.98c-2.3,1.18-4.32,1.69-6.12,1.69c-5.71,0-9.26-5.13-12.86-10.26
			c-3.59-5.13-7.25-10.25-13.19-10.25c-0.98,0-2.05,0.14-3.2,0.45c-0.9,10.71,5.82,20,12.32,27.2c1.79,6.52,1.34,16.74,8.95,20.93
			c12.53,4.34,26.11,6.09,40.36,6.09c3.3,0,6.61-0.09,9.98-0.27h1.24c1.76-1.68,3.69-3.25,3.69-3.25c-3.96,0.26-7.93,0.4-11.86,0.4
			c-13.39,0-26.59-1.67-39.4-5.98l-0.43-0.23c8.27-6.98,20.14-10.7,29.76-13.03c13.41-3.25,24.99-5.07,37.74-5.07l2.54-0.05
			c23.94,1.17,46.77,5.83,66.45,19.31c-3.78,3.1-7.82,3.05-10.75,3.72c-8.62,0.85-17.09,1.7-25.68,1.7c-5.44,0-10.95-0.34-16.6-1.24
			l4.49,3.71h2c5.19,0.58,10.41,0.89,15.62,0.89c11.61,0,23.17-1.54,34.29-5.07c4.26-2.79,7.17-8.14,7.61-13.73
			c-0.23-9.52,10.06-13.72,12.53-21.85c0.46-3.94,4.03-8.6,1.57-12.09c-0.66-0.11-1.28-0.15-1.88-0.15
			c-10.42,0-12.58,14.54-22.73,18.06c-1.18,0.61-2.64,0.86-4.11,0.86c-2.48,0-5.02-0.69-6.4-1.56l0.43-0.45
			c2.23-2.09,1.34-6.29-0.68-7.45c-10.29-1.4-3.34-14.42-10.51-19.3c-6.04,2.32-8.95,6.28-11.62,12.09l-6.5,0.47
			c-3.13,1.17-5.37,3.72-5.59,6.98c-4.71,0-8.94-1.39-13.42-2.1c0-3.95-0.68-8.83,3.58-10.46c2.68-0.92,4.92-3.71,4.03-6.97
			c0.22-3.72-4.47-4.89-7.16-5.82C202.02,59.45,197.33,53.88,193.52,48.76 M192.17,132.94l-0.86,1.15h2.02
			C192.94,133.72,192.56,133.33,192.17,132.94"/>
		<path id="XMLID_202_" class="st0" d="M193.52,112.01h-1.56c-4.7,6.03-9.64,14.41-16.12,18.83c0,0-1.93,1.58-3.69,3.25
			c-1.4,1.35-2.7,2.78-2.79,3.49c-19.78,13.4-42.34,18.16-65.56,18.16c-6.98,0-14-0.43-21.04-1.18c-5.6,1.84-3.13,10-4.93,14.64
			c-0.44,33.96,5.82,64.19,14.99,93.03c19.7,47.67,49.69,97.67,96.66,121.38c22.38-13.47,42.29-27.67,57.07-49.06
			c36.7-44.42,56.84-99.06,58.86-157.67c-0.69-6.04,0.66-14.42-3.15-19.29c-4.67,0.6-9.61,0.85-14.6,0.85
			c-8.56,0-17.19-0.75-24.56-1.78c-18.12-3.73-36.23-7.68-49.89-21.63l-1.11-0.93l-4.49-3.72
			C201.36,124.57,198.45,118.29,193.52,112.01 M191.31,134.1l0.86-1.15c0.4,0.4,0.77,0.77,1.16,1.15
			c27.41,27.2,64.24,34.9,99.99,35.11c1.79,16.04,0.45,30.7-2.01,46.51c-10.52,62.56-46.32,123.25-102.26,155.81
			c-14.54-7.44-31.34-22.56-42.75-35.57c0,0-14.08-17.44-19.22-25.58c-26.4-41.87-41.85-89.3-37.15-143.49
			c2.27,0.08,4.5,0.1,6.74,0.1c34.31,0,65.8-8.6,93.96-31.96L191.31,134.1z"/>
		<path id="XMLID_197_" class="st0" d="M192.29,144.22c-2.59,0-4.52,4.46-6.16,6.15c-8.74,11.63-14.54,24.65-20.13,37.67
			c-6.49-1.76-14.06-3.64-21.34-3.64c-3.27,0-6.5,0.38-9.56,1.31c-9.83,2.09-18.55,8.37-24.6,16.76
			c-13.21,23.01,2.01,51.61,16.55,70.21c10.75,10.71,25.75,27.92,41.4,33.5c-0.45,4.41-6.49,9.76-10.73,12.1
			c-6.27,1.86-10.08,6.27-11.86,12.55c0,0,0.33,1.67,0.9,2.56c1.37,2.16,5.88,2.56,5.88,2.56c23.71,0.69,39.99,0,62.59,0.69
			c3.05,0,6,0.48,8.76,0.48c3.32,0,6.35-0.7,8.91-3.74c0.66-3.25-0.45-6.73-2.69-9.29c-6.27-4.66-16.12-8.86-19.47-16.99
			c16.78-6.05,32.68-23.01,44.32-34.42c11.84-17.43,25.71-36.05,20.57-58.59c-4.02-17.21-19.01-26.74-35.13-28.84
			c-6.95,0.23-15.89,0.71-23.26,3.26c-6.26-15.12-12.76-29.77-23.05-43.49C193.52,144.45,192.88,144.22,192.29,144.22
			 M191.51,208.74c-3.14-3.73-4.71-9.3-9.62-11.85c2.68-11.86,5.38-22.09,10.07-33.01c4.24,9.53,6.04,21.39,9.17,32.32
			C197.09,199.44,194.19,204.33,191.51,208.74 M174.95,297.34c-18.13-3.72-29.76-23.49-39.39-37.67
			c-7.39-10.93-14.99-26.74-8.96-41.4c4.04-7.19,10.3-13.71,18.58-13.71c0.5-0.12,1.02-0.15,1.54-0.15c4.04,0,8.27,2.97,11.66,5.04
			c-2.68,21.39-13.65,45.35-6.04,67.89c0.61,0.33,1.34,0.87,2.02,0.87c0.29,0,0.6-0.11,0.88-0.41c8.95-14.18,13.43-30.69,19.25-45.8
			C183.01,251.3,185.47,277.8,174.95,297.34 M226.42,278.51c3.12,0,2.67-3.48,4.03-5.35c2.69-21.16-2.01-42.32-6.72-62.08
			c2.92-1.86,5.16-4.65,8.74-5.35c0.53-0.03,1.05-0.04,1.58-0.04c8.35,0,16.1,3.52,19.89,10.95c9.62,16.99-2.36,38.24-13.42,51.86
			c-9.83,12.13-20.14,27.92-35.8,28.84c-8.27-20.24-7.38-45.59,2.46-64.89h0.9C212.55,248.52,217.68,266.18,226.42,278.51"/>
	</g>
</g>
<rect id="XMLID_3_" x="359.61" y="110.31" class="st1" width="1165.08" height="351.47"/>
<text id="XMLID_83_" transform="matrix(1 0 0 1 359.6094 196.9346)"><tspan x="0" y="0" class="st0 st2 st3 st4">Religiosas</tspan><tspan x="0" y="101.95" class="st0 st5 st3 st4">Pureza de María</tspan><tspan x="0" y="184.79" class="st0 st5 st6">Equipo Pedagógico-Pastoral</tspan></text>
</svg>
