<svg id="Capa_1" data-name="Capa 1" xmlns="http://www.w3.org/2000/svg" viewBox="0 0 1476.62 413.02"><defs><style>.cls-1,.cls-2{fill:#4f5461;}.cls-2{font-size:113.98px;font-family:OpenSans-Semibold, Open Sans;font-weight:600;letter-spacing:-0.02em;}.cls-3{fill:#c54e37;}.cls-3,.cls-4{font-family:OpenSans-Bold, Open Sans;font-weight:700;}.cls-4{font-size:79.25px;fill:#787f94;letter-spacing:0em;}</style></defs><title>logo-normal</title><path class="cls-1" d="M73.35,254.8C68.22,265.25,62,276.64,63.29,289c0,5.36,6.05,10.47,3.37,16.05a1.66,1.66,0,0,1-1.36-.45,3.42,3.42,0,0,0-2.25-.84,8,8,0,0,0-4.47,2c-1.77,2.33-.44,5.35.7,7.69a4.82,4.82,0,0,0,1.87.36c2.11,0,4-1.32,5.95-2.23,3.12,6.75,3.12,15.13,7.15,21.4l-1.11,1.38c-6.94-8.82-15.22-17.19-25.07-21.39,2.91,12.57,11.86,25.35,21,32.1,1.67,0,4.14,1.36,6,1.36,1.36,0,2.34-.76,2.34-3.47A123.14,123.14,0,0,1,87.23,358c-.22.68-.53.89-.88.89a2.3,2.3,0,0,1-.88-.28,2.26,2.26,0,0,0-.82-.29.41.41,0,0,0-.32.14c-2.91.46-4.48,3.73-4.94,6.28,1.06,2.42,2.71,4.22,5.33,4.22l.49,0a6.53,6.53,0,0,0,5.16-6.74l17,16c20.36,17.45,44.75,22.56,70,23.26l.47.94c-3.37,2.1-7.4,3.94-9.41,7.43-.91,4-3.36,7.68-3.58,11.41,5.38-.49,11.41-2.8,15.21-7.92,2-3.25,4.7-7.91,2.46-11.4,2.38-.12,4.94-.46,7.43-.46a13.89,13.89,0,0,1,5.55.94l-.44.46c-2.7,2.33-.23,5.34.44,7.92,3.35,6.49,9.41,10,16.56,10.46-1.35-8.14-4.7-16.52-12.53-19.32,5.59-1.16,13.43-1.16,18.79-1.62,26.42-.45,49.46-15.81,69.82-35.58.67.94.21,2.34.45,3.26a7.64,7.64,0,0,0,6.26,3.49,6.14,6.14,0,0,0,3.81-5.81c-.84-2.87-4.27-4.68-6.93-4.68l-.46,0a141.43,141.43,0,0,1,10.51-16c.9,1.17,0,2.79.9,4,15.22,0,23.49-19.31,28.88-31.85-9.18,2.55-15.89,9.06-22.84,16.27-1.13,1-1.3,4-2.86,4a2,2,0,0,1-.94-.3c2.47-6.49,4.91-13.24,6.05-20.45a2.2,2.2,0,0,1,2.05-1.36,8.23,8.23,0,0,1,2.82.78,8.41,8.41,0,0,0,2.89.77,2.61,2.61,0,0,0,2.31-1.35c1.34-2.57,1.57-7-2-8.13a2.4,2.4,0,0,0-1.45-.5,5.41,5.41,0,0,0-2,.56,5.32,5.32,0,0,1-2,.57,1.77,1.77,0,0,1-.83-.19l.22-5.34c9.15-14.42.89-31.39-5.15-44.42l-1.11-.47a61.2,61.2,0,0,0-.91,28.6c.91,7,6.49,12.57,5.15,20-.35.53-.68.73-1,.73-1,0-2-1.71-3-1.9a4.36,4.36,0,0,0-2-.45,3.46,3.46,0,0,0-2.72,1.15c-1.8,3-.22,6.75,1.57,8.85a4.41,4.41,0,0,0,1.26.18c1.68,0,3.16-.94,4.77-1.11l-1.55,9.75c-3.13,6.52-4.48,15.13-9.42,19.53a16.93,16.93,0,0,0,.91-9.52c-3.14-10.23-6-22.09-14.54-28.38-.45.94,0,2.35-.66,3.26.21,14.42-.67,31.64,12.06,39.76-3.78,4.21-4,8.85-8.93,11.63a10.15,10.15,0,0,0-4.48-6.5,3.78,3.78,0,0,0-2.1-.78c-2.54,0-3.67,4.05-3.48,7.06a6.8,6.8,0,0,0,5.58,4.88c-2.69,3.94-4.92,7.21-8.74,10-19,15.36-40.61,23.87-64.62,23.87q-4.33,0-8.76-.37l-1.57-.7c5.38-4.89,10.75-12.56,10.75-20.23h-3.15c-9.16,1.38-13.42,12.54-15.66,20.47a2.62,2.62,0,0,1-1.61.56c-1.54,0-2.92-1.4-4.42-1.74-1.35-5.8-3.36-11.38-7.6-15.81-2.85-1-5.37-3.79-8.38-3.79a4.92,4.92,0,0,0-1.71.31c0,8.13,4.27,13.94,10.09,18.83v2.1H168c-.81,0-1.64.05-2.44.05-26.89,0-52.9-14.65-70.27-35.63.84-.18.91-1,1.49-1a1.36,1.36,0,0,1,.74.31,7.59,7.59,0,0,0,3.81-6.74c-.41-1.9-1-4.76-3.26-4.76a3.65,3.65,0,0,0-.77.09c-3.79.71-5.37,4.9-6.93,7.46a34.92,34.92,0,0,1-7.62-12.79c12.54-8.61,12.77-26.51,12.09-41.86H93.51c-9.18,9.77-14.33,23.94-14.12,37.68-4.68-9.08-8.26-18.62-9.61-29.08l.89-.7a1.12,1.12,0,0,1,.35-.06,1.84,1.84,0,0,1,1.22.76,11.39,11.39,0,0,0,1.78.15c1.41,0,2.9-.34,3.37-1.77,1.56-2.33,1.79-5.82-.69-7.92-2,.23-4.69-.22-6.92,1.63-3.12-6.75,3.81-13.25,4.93-20.46,2-9.07,3.36-20.92-1.36-28.36" transform="translate(-48.07 -48.76)"/><path class="cls-1" d="M108.93,340.84c.46,11.85,1.35,21.39,6,31.84,2.69,3.19,4.89,8.11,9.27,8.11a7.39,7.39,0,0,0,2.36-.43c5.82-16-6.94-29.53-17.68-39.52" transform="translate(-48.07 -48.76)"/><path class="cls-1" d="M269.6,342.92c-10.29,9.77-21.93,20.46-19.23,36.05.69,1.47,1.68,3.51,3.27,3.51a2.59,2.59,0,0,0,1.42-.48c13.86-7.44,13.43-25.81,14.54-39.08" transform="translate(-48.07 -48.76)"/><path class="cls-1" d="M133.54,363.16l-.43.46c5.59,14.89,18.79,32.09,35.79,32.55-2.9-18.13-19-30-35.36-33" transform="translate(-48.07 -48.76)"/><path class="cls-1" d="M245,364.32c-5.82.46-9.17,3.94-14.78,5.12-10.5,5.58-19.47,14.87-21.47,26.73h1.57c15.88-1.39,30.42-16.5,34.68-31.85" transform="translate(-48.07 -48.76)"/><path class="cls-1" d="M73.14,377.8c8.06,10,19.23,16.35,32,16.35a40.11,40.11,0,0,0,6.49-.54c1.12-1.39,4-3.24,2.89-5.34-10.06-12.55-27.73-9.54-41.38-10.47" transform="translate(-48.07 -48.76)"/><path class="cls-1" d="M132.45,379.7a4.39,4.39,0,0,0-1.36.2c-1.57,1.39-2.68,4.19-1.57,5.35.68,2.33,2.91,2.78,4.7,3.47,2.47-.92,2.47-3.47,2.91-5.56a4.71,4.71,0,0,0-4.68-3.46" transform="translate(-48.07 -48.76)"/><path class="cls-1" d="M305,380.6c-1.91,0-3.79.07-5.65.07h-5.79c-10.67,0-20.42.54-29.05,7.62-1.36,1.87-1.57,5.34.66,6.74a30.72,30.72,0,0,0,8.9,1.32c11.53,0,22.37-6.47,30.93-15.73" transform="translate(-48.07 -48.76)"/><path class="cls-1" d="M245.33,380.68a2.81,2.81,0,0,0-1.46.39c-1.57,1.15-3.81,2.55-2.91,5.56,1.12.8,1.47,3.06,3,3.06a2.31,2.31,0,0,0,1-.27c2-.7,4.24-2.79,3.57-5.33a3.2,3.2,0,0,0-3.23-3.41" transform="translate(-48.07 -48.76)"/><path class="cls-1" d="M122.43,392.36a3.18,3.18,0,0,0-.74.09c-2.23.7-4.47,3.72-3.58,6.28,1.62,1.47,2.69,3.32,4.85,3.32a3.19,3.19,0,0,0,.74-.07c2-.92,4.26-2.78,3.82-5.35-1.41-1.46-2.85-4.27-5.09-4.27" transform="translate(-48.07 -48.76)"/><path class="cls-1" d="M254.61,394.08a5.73,5.73,0,0,0-4.26,5.83c.67,2.77,2.91,3,5.6,3.47,1.79-.7,3.81-2.8,3.59-5.1a5.36,5.36,0,0,0-4.93-4.2" transform="translate(-48.07 -48.76)"/><path class="cls-1" d="M152.32,401.49c-.68,0-1.34,0-2,0a69.14,69.14,0,0,0-26.86,14.42c4.2.34,9.1,1.15,14,1.15a33.85,33.85,0,0,0,5.69-.45c9-.93,19.48-3.26,22.84-12.56-3.75-1.84-8.87-2.59-13.69-2.59" transform="translate(-48.07 -48.76)"/><path class="cls-1" d="M221.36,401.6a23.15,23.15,0,0,0-9.27,2l-.9,1.4c6.51,11.11,18.89,12.89,30.31,12.89,3.89,0,7.68-.21,11.09-.33l1.34-1.39c-11-4.67-20.61-14.58-32.57-14.58" transform="translate(-48.07 -48.76)"/><path class="cls-1" d="M193.52,48.76c-3.58,4.18-7.84,9.75-9.62,15.57,0,4.66-5.38,1.64-6.94,4.89a7.32,7.32,0,0,0-.44,7.67c5.14,2.1,6,6,6.92,11.16-2,4.19-9.39,2.34-13.42,3.73-.88-.47-.66-1.39-.66-2.33a6.76,6.76,0,0,0-5.59-5.12,8.62,8.62,0,0,1-1.68.17c-8.07,0-7.58-12.76-15.79-13.19a23.77,23.77,0,0,0-5.13,16c-2.24,1.86-5.6.7-7.4,4.19-1.56,2.09-.66,5.12.9,7a13.45,13.45,0,0,1-6.12,1.69c-5.7,0-9.26-5.13-12.86-10.26s-7.25-10.26-13.18-10.26a11.83,11.83,0,0,0-3.2.46c-.9,10.7,5.82,20,12.32,27.2,1.78,6.52,1.34,16.74,9,20.93,12.53,4.34,26.11,6.09,40.36,6.09,3.3,0,6.61-.1,10-.27h1.24c1.75-1.68,3.69-3.26,3.69-3.26q-6,.39-11.86.4a122.78,122.78,0,0,1-39.4-6l-.43-.23c8.27-7,20.14-10.7,29.75-13,13.42-3.25,25-5.06,37.74-5.06l2.54-.06c23.94,1.18,46.77,5.83,66.46,19.31-3.78,3.11-7.82,3.06-10.76,3.73-8.62.85-17.08,1.7-25.68,1.7a104.89,104.89,0,0,1-16.6-1.24l4.49,3.72h2a140.72,140.72,0,0,0,15.62.88A113,113,0,0,0,264,129.92c4.25-2.79,7.17-8.15,7.6-13.74-.23-9.51,10.07-13.71,12.53-21.85.46-3.94,4-8.6,1.57-12.09a12.5,12.5,0,0,0-1.88-.15c-10.42,0-12.58,14.54-22.73,18.06A9.07,9.07,0,0,1,257,101a13.28,13.28,0,0,1-6.4-1.56L251,99c2.24-2.09,1.35-6.29-.67-7.45-10.29-1.4-3.35-14.42-10.51-19.3-6,2.32-9,6.29-11.63,12.09l-6.49.47a8.12,8.12,0,0,0-5.6,7c-4.7,0-8.94-1.39-13.42-2.1,0-4-.68-8.84,3.58-10.46a5.88,5.88,0,0,0,4-7c.21-3.71-4.48-4.89-7.17-5.82-1.12-7-5.81-12.54-9.62-17.66m-1.35,84.18-.86,1.16h2l-1.15-1.16" transform="translate(-48.07 -48.76)"/><path class="cls-1" d="M193.52,112H192c-4.7,6-9.64,14.42-16.12,18.83,0,0-1.93,1.58-3.68,3.26-1.4,1.34-2.71,2.77-2.8,3.49C149.58,151,127,155.74,103.8,155.74a201.37,201.37,0,0,1-21-1.17c-5.6,1.84-3.13,10-4.93,14.64-.44,34,5.82,64.19,15,93,19.7,47.67,49.69,97.66,96.66,121.37,22.38-13.47,42.29-27.66,57.07-49.06,36.7-44.42,56.84-99.06,58.86-157.67-.68-6,.66-14.42-3.15-19.29a115.48,115.48,0,0,1-14.59.85,183.46,183.46,0,0,1-24.57-1.78C245,152.93,226.87,149,213.22,135l-1.12-.93-4.49-3.73c-6.25-5.8-9.16-12.08-14.09-18.36m-2.21,22.09.86-1.16,1.15,1.16c27.42,27.19,64.25,34.89,100,35.11,1.78,16,.45,30.7-2,46.51C280.78,278.28,245,339,189,371.53,174.5,364.08,157.69,349,146.29,336c0,0-14.08-17.44-19.23-25.58-26.4-41.86-41.85-89.3-37.14-143.49,2.27.08,4.5.11,6.74.11,34.3,0,65.79-8.6,94-32Z" transform="translate(-48.07 -48.76)"/><path class="cls-1" d="M192.29,144.22c-2.58,0-4.52,4.45-6.16,6.15C177.4,162,171.59,175,166,188c-6.49-1.76-14.06-3.64-21.35-3.64a32.45,32.45,0,0,0-9.55,1.32c-9.84,2.09-18.55,8.37-24.6,16.76-13.21,23,2,51.6,16.54,70.2,10.76,10.71,25.75,27.92,41.41,33.5-.45,4.41-6.49,9.76-10.74,12.1-6.27,1.86-10.08,6.27-11.86,12.55a9.24,9.24,0,0,0,.9,2.56c1.36,2.16,5.88,2.56,5.88,2.56,23.7.7,40,0,62.59.7,3,0,6,.48,8.76.48,3.32,0,6.35-.69,8.91-3.74a11,11,0,0,0-2.68-9.29c-6.27-4.66-16.12-8.86-19.48-17,16.79-6.05,32.69-23,44.32-34.42,11.85-17.43,25.72-36.05,20.58-58.59-4-17.21-19-26.74-35.13-28.84-6.95.23-15.9.71-23.26,3.26C211,173.4,204.48,158.75,194.19,145a2.89,2.89,0,0,0-1.9-.81m-.78,64.52c-3.14-3.73-4.71-9.3-9.62-11.85,2.68-11.87,5.37-22.09,10.07-33,4.24,9.53,6,21.39,9.17,32.32-4,3.25-6.94,8.14-9.62,12.55M175,297.34c-18.12-3.72-29.76-23.49-39.38-37.67-7.39-10.93-15-26.74-9-41.4,4-7.19,10.31-13.71,18.58-13.71a7.25,7.25,0,0,1,1.54-.15c4,0,8.27,3,11.66,5-2.68,21.39-13.65,45.35-6,67.89a4.93,4.93,0,0,0,2,.87,1.17,1.17,0,0,0,.88-.41c8.95-14.18,13.43-30.69,19.25-45.79,8.51,19.29,11,45.79.45,65.33m51.47-18.83c3.12,0,2.67-3.48,4-5.35,2.69-21.17-2-42.32-6.72-62.08,2.91-1.87,5.15-4.66,8.74-5.35.52,0,1,0,1.58,0,8.35,0,16.1,3.52,19.89,10.95,9.62,17-2.36,38.24-13.42,51.87-9.84,12.12-20.15,27.91-35.8,28.83-8.28-20.23-7.38-45.58,2.46-64.88h.9c4.48,16.06,9.61,33.72,18.35,46" transform="translate(-48.07 -48.76)"/><text class="cls-2" transform="translate(311.54 148.17)">Religiosas<tspan class="cls-3"><tspan x="0" y="101.95">Pureza de María</tspan></tspan><tspan class="cls-4"><tspan x="0" y="184.79">Equipo Pedagógico-Pastoral</tspan></tspan></text></svg>